<?xml version="1.0" encoding="UTF-8"?>
<svg width="48px" height="48px" viewBox="0 0 48 48" version="1.1" xmlns="http://www.w3.org/2000/svg" xmlns:xlink="http://www.w3.org/1999/xlink">
    <title>Bio degradable</title>
    <g id="Page-1" stroke="none" stroke-width="1" fill="none" fill-rule="evenodd">
        <g id="Bio-degradable">
            <circle id="Oval-Copy-3" fill="#FFFFFF" cx="24" cy="24" r="24"></circle>
            <g id="Group-11" transform="translate(9.694491, 5.930709)" fill="#222933" fill-rule="nonzero">
                <path d="M27.958162,12.1690249 L0,12.1690249 L0,17.1236336 L4.80150857,17.1242913 L2.16538166,17.6380102 L5.11308348,36.9995076 L22.9062527,36.9995076 L25.8895086,17.1242913 L27.958162,17.1236336 L27.958162,12.1690249 Z M26.9575086,13.1692913 L26.9575086,16.1242913 L25.028838,16.1236336 L22.0445086,36.0002913 L5.97150857,36.0002913 L3.29750857,18.4362913 L10.0802696,17.1144016 L9.98463079,16.1236336 L0.999508568,16.1242913 L0.999508568,13.1692913 L26.9575086,13.1692913 Z" id="Path-3"></path>
                <path d="M5.97179582,0.167457665 C7.09940989,-0.0555312324 8.53281542,-0.0555312324 10.3041591,0.165734741 C11.4894527,0.37725102 12.4135103,0.996793468 13.045472,2.00521656 C13.6404105,2.95456159 13.7845673,3.99202449 13.4776165,5.08221088 L13.4595086,5.1392913 L13.8375086,6.1272913 L13.8446855,6.106896 C13.8965818,5.95975709 13.962216,5.79595116 14.0416631,5.61502103 L14.2189965,5.23019307 L14.3725086,4.9192913 L14.3651704,4.75020229 C14.3248115,3.55204155 14.4741201,2.63175879 14.8346012,1.98269283 L14.9291333,1.82607283 C15.3961047,1.11361709 16.2896234,0.575455746 17.6888889,0.160769628 C19.528335,-0.0351010549 20.9575765,-0.0351010549 21.9885829,0.167326144 C22.9477595,0.355650324 24.2249205,0.84968857 25.8332103,1.64917895 L26.1829169,1.82517351 L26.613434,2.04440904 L26.4091032,2.48219675 C25.7614549,3.86981151 25.0332284,4.94330004 24.2179767,5.70079773 C23.4193728,6.44282705 22.2616454,7.22176054 20.6516863,8.08216873 C19.9497142,8.29983848 19.0762365,8.29983848 18.0272632,8.09536451 C17.072938,7.90934009 16.4146407,7.71111609 16.0204972,7.4741817 L15.9195288,7.40858355 L15.5145924,7.12310978 L15.9854013,6.44467585 L16.3429235,5.94792877 C16.7441293,5.40335566 17.0899114,4.98096982 17.3827723,4.67876796 C17.7562589,4.29336874 18.2918556,3.84712011 18.9923415,3.33568134 L19.2627583,3.14082754 L19.8425274,3.95560836 C19.0534371,4.51709697 18.4715724,4.99218407 18.1008904,5.37468922 C17.9891458,5.48999793 17.8662461,5.62817678 17.7323881,5.78906808 L17.4501194,6.14108723 C17.4006589,6.20478873 17.3499955,6.27100215 17.2981363,6.33972165 L16.9595086,6.8012913 C17.2247778,6.88978889 17.5711226,6.98033674 17.9982931,7.06943164 L18.2185899,7.1138381 C19.118636,7.28928202 19.8322743,7.28928202 20.2656367,7.16485914 C21.7176794,6.37909465 22.8093088,5.6446327 23.5372949,4.96821857 C24.119299,4.42744477 24.6651724,3.68043198 25.171384,2.72615894 L25.2895086,2.4962913 L25.0701365,2.38856891 C23.7930562,1.76966894 22.7618757,1.36993789 21.9848725,1.18921079 L21.7959218,1.1485915 C20.8810104,0.96895832 19.5433046,0.96895832 17.886797,1.13648254 C16.7829745,1.47087851 16.0801475,1.89418728 15.7654922,2.37425517 C15.4685073,2.82736333 15.3259752,3.61684944 15.3652378,4.73424435 L15.3853678,5.13359754 L15.32344,5.25456934 C15.251692,5.39472416 15.185934,5.52697122 15.1261882,5.65117506 L14.9650093,5.99952145 C14.8696106,6.21548533 14.7983493,6.39873451 14.7514027,6.54818532 C14.6926203,6.73531433 14.6339854,6.99026502 14.5764414,7.31099695 L14.5079727,7.72731968 L14.4742444,7.95891744 L14.2054974,9.87702093 L12.3998902,5.16691831 L12.4577001,4.9960805 C12.7605092,4.1012295 12.6741146,3.29579407 12.1981153,2.53624068 C11.7166437,1.76795499 11.0370531,1.31231758 10.154539,1.15412707 C8.50648086,0.948912299 7.17486797,0.948912299 6.16579182,1.14845998 C5.30960476,1.31777341 4.25245653,1.71620636 3.00028634,2.34505111 L2.69450857,2.5012913 L2.79939468,2.73308094 C3.19550286,3.56943839 3.7334509,4.34739715 4.41484788,5.06809325 L4.67709906,5.33567232 C5.64685843,6.29071373 6.71045828,6.88031404 7.88943408,7.11749645 C8.63503313,7.29019059 9.37043507,7.29019059 10.1016683,7.11792413 C10.5353316,7.01576023 10.8793283,6.89888211 11.1319376,6.77415876 L11.1645086,6.7562913 L11.0876553,6.65447534 C10.7223813,6.17925236 10.4011064,5.80094495 10.1257765,5.52082789 L9.99194924,5.38895779 C9.79666386,5.20314472 9.54144348,4.99096298 9.22693705,4.75325691 L8.82111358,4.45581198 C8.67638102,4.3526158 8.52220422,4.24538976 8.35862472,4.13418791 L8.10620864,3.96441002 L8.66040774,3.13202588 C8.84216502,3.25303938 9.01444642,3.3701931 9.17729348,3.48354108 L9.63757315,3.8122218 C9.7095831,3.86511706 9.77924485,3.9170744 9.84656359,3.96810056 L10.2224014,4.2631375 C10.3963038,4.40512297 10.5492125,4.53884948 10.6812678,4.6644994 C11.0241228,4.9907242 11.4203412,5.44697883 11.8730129,6.03528757 L12.2749145,6.57193919 L12.5255045,6.91485138 L12.2276417,7.2176085 C11.8504374,7.60101073 11.2208703,7.88163374 10.3309745,8.09127848 C9.44953978,8.29892991 8.55846866,8.29892991 7.67808645,8.09479795 C6.31619498,7.82106927 5.07955984,7.13554787 3.97541967,6.04816515 C2.98666189,5.07441368 2.23925222,3.99291382 1.73633339,2.80588438 L1.59279561,2.44661188 L1.43913845,2.037714 L1.82369989,1.83054137 C3.46753222,0.944968833 4.84696302,0.389896555 5.97179582,0.167457665 Z" id="Path-4"></path>
                <polygon id="Path-5" points="14.5084315 7.14748283 14.5084315 12.2773571 13.5084315 12.2773571 13.5084315 7.14748283"></polygon>
            </g>
        </g>
    </g>
</svg>