<?xml version="1.0" encoding="UTF-8"?>
<svg width="223px" height="30px" viewBox="0 0 223 30" version="1.1" xmlns="http://www.w3.org/2000/svg" xmlns:xlink="http://www.w3.org/1999/xlink">
    <title>Divider</title>
    <defs>
        <polygon id="path-1" points="0 0 42 0 42 30 0 30"></polygon>
        <polygon id="path-3" points="0 0 9 0 9 6 0 6"></polygon>
    </defs>
    <g id="Page-1" stroke="none" stroke-width="1" fill="none" fill-rule="evenodd">
        <g id="Desktop-HD-Copy-2" transform="translate(-609.000000, -962.000000)">
            <g id="Divider" transform="translate(609.000000, 962.000000)">
                <g id="Clipped" transform="translate(91.000000, 0.000000)">
                    <mask id="mask-2" fill="white">
                        <use xlink:href="#path-1"></use>
                    </mask>
                    <g id="Path"></g>
                    <path d="M21.1320008,28.3653846 L20.7480008,28.3653846 C20.8860012,28.28726 21.0120008,28.1670677 21.1320008,28.0168277 C21.2520008,28.1670677 21.3780004,28.28726 21.5160008,28.3653846 L21.1320008,28.3653846 Z M21.1320008,1.65264462 L21.5160008,1.65264462 C21.3780004,1.73677846 21.2520008,1.85697231 21.1320008,2.00120308 C21.0120008,1.85697231 20.8860012,1.73677846 20.7480008,1.65264462 L21.1320008,1.65264462 Z M21.1320008,28.3653846 L20.6820004,28.3653846 L20.7060004,28.3533662 L21.1320008,28.0829323 L21.5580012,28.3533662 L21.5820012,28.3653846 L21.1320008,28.3653846 Z M21.1320008,1.65264462 L21.5820012,1.65264462 L21.5580012,1.66466462 L21.1320008,1.93509692 L20.7060004,1.66466462 L20.6820004,1.65264462 L21.1320008,1.65264462 Z M21.1320008,29.9879815 L21.0780012,30.0180292 L20.6820004,29.7475969 C19.4040008,28.8701923 19.104,27.6021631 18.7560008,26.5805292 C18.4440008,25.5168277 18.2100004,24.4831738 17.8980004,23.5096154 C16.56,19.3088954 12.4920008,17.4879815 8.32200038,17.3918277 C6.78000077,17.3617785 5.17800038,17.5540862 3.87600077,18.3774046 C2.56800154,19.2007215 1.63800115,20.77524 1.93200077,22.3016831 C2.22000077,23.7920677 3.61800038,24.8918277 5.10000077,25.16226 C6.85800038,25.4807692 8.89200077,24.6033662 9.49200077,22.9026446 C9.90600038,21.7127415 9.52800154,20.2884615 8.58000077,19.4711538 C7.632,18.6538462 6.17400115,18.4975969 5.08200038,19.0985585 C6.37200077,18.0829323 8.39400038,18.29928 9.552,19.4711538 C10.7100012,20.63702 10.9560008,22.5721154 10.2660004,24.0685108 C9.57600154,25.5709138 8.05800038,26.5985585 6.43800115,26.8389431 C4.704,27.0973569 2.85600154,26.4663462 1.66200115,25.1682692 C0.468000768,23.8701923 -0.011999232,21.9350969 0.468000768,20.2283662 C1.11600077,17.9687508 3.30600038,16.41226 5.59800115,15.9555292 C7.88400077,15.5048077 10.2540012,15.9795677 12.4860012,16.6526446 C14.1720008,17.1634615 15.8760008,17.8125 17.1540004,19.0444708 C18.4860012,20.3305292 19.1460004,22.0612985 19.6740004,23.8040862 C19.7700004,24.1165877 21.072,28.0949523 21.1320008,28.0168277 C21.1920015,28.0949523 22.4880015,24.1165877 22.5840015,23.8040862 C23.1120015,22.0612985 23.7720008,20.3305292 25.1100012,19.0444708 C26.3820012,17.8125 28.0860012,17.1634615 29.7780004,16.6526446 C32.0100004,15.9795677 34.3800008,15.5048077 36.6660004,15.9555292 C38.9520015,16.41226 41.1480008,17.9687508 41.7900012,20.2283662 C42.2760008,21.9350969 41.7900012,23.8701923 40.5960008,25.1682692 C39.408,26.4663462 37.5540004,27.0973569 35.8200008,26.8389431 C34.2060012,26.5985585 32.6820004,25.5709138 31.9920015,24.0685108 C31.3080008,22.5721154 31.5540004,20.63702 32.7120015,19.4711538 C33.8640015,18.29928 35.8920008,18.0829323 37.1820012,19.0985585 C36.0900004,18.4975969 34.6320015,18.6538462 33.6840008,19.4711538 C32.736,20.2884615 32.3580012,21.7127415 32.7720008,22.9026446 C33.3660012,24.6033662 35.4060012,25.4807692 37.1640008,25.16226 C38.6460012,24.8918277 40.0440008,23.7920677 40.3320008,22.3016831 C40.6260004,20.77524 39.696,19.2007215 38.3880008,18.3774046 C37.0800015,17.5540862 35.4780012,17.3617785 33.9420012,17.3918277 C29.7720008,17.4879815 25.6980004,19.3088954 24.3600015,23.5096154 C24.048,24.4831738 23.8200008,25.5168277 23.5020012,26.5805292 C23.1600015,27.6021631 22.8600008,28.8701923 21.5820012,29.7475969 L21.1800008,30.0180292 L21.1320008,29.9879815 Z M21.1320008,0.0360584615 L21.1800008,-2.27373675e-13 L21.5820012,0.276443077 C22.8600008,1.14783692 23.1600015,2.41586615 23.5020012,3.4375 C23.8200008,4.50721231 24.048,5.53485538 24.3600015,6.51442308 C25.6980004,10.7091354 29.7720008,12.5360585 33.9420012,12.6262031 C35.4780012,12.66226 37.0800015,12.4639431 38.3880008,11.6406246 C39.696,10.8173077 40.6260004,9.24278923 40.3320008,7.71634615 C40.0440008,6.22596154 38.6460012,5.12620308 37.1640008,4.85576923 C35.4060012,4.53726 33.3660012,5.41466462 32.7720008,7.12139385 C32.3580012,8.30528923 32.736,9.73557692 33.6840008,10.5528846 C34.6320015,11.3701923 36.0900004,11.5204338 37.1820012,10.9194708 C35.8920008,11.9350969 33.8640015,11.7187508 32.7120015,10.5528846 C31.5540004,9.38100923 31.3080008,7.45192308 31.9920015,5.94952 C32.6820004,4.45312615 34.2060012,3.41947077 35.8200008,3.17908615 C37.5540004,2.92067385 39.408,3.55168308 40.5960008,4.84976 C41.7900012,6.14783692 42.2760008,8.08894308 41.7900012,9.78966462 C41.1480008,12.0552892 38.9520015,13.6117785 36.6660004,14.0625 C34.3800008,14.5132215 32.0100004,14.0384615 29.7780004,13.3653846 C28.0860012,12.8605769 26.3820012,12.2055292 25.1100012,10.9795677 C23.7720008,9.69351077 23.1120015,7.95673077 22.5840015,6.21394308 C22.4880015,5.90144308 21.1920015,1.92908615 21.1320008,2.00120308 C21.072,1.92908615 19.7700004,5.90144308 19.6740004,6.21394308 C19.1460004,7.95673077 18.4860012,9.69351077 17.1540004,10.9795677 C15.8760008,12.2055292 14.1720008,12.8605769 12.4860012,13.3653846 C10.2540012,14.0384615 7.88400077,14.5132215 5.59800115,14.0625 C3.30600038,13.6117785 1.11600077,12.0552892 0.468000768,9.78966462 C-0.011999232,8.08894308 0.468000768,6.14783692 1.66200115,4.84976 C2.85600154,3.55168308 4.704,2.92067385 6.43800115,3.17908615 C8.05800038,3.41947077 9.57600154,4.45312615 10.2660004,5.94952 C10.9560008,7.45192308 10.7100012,9.38100923 9.552,10.5528846 C8.39400038,11.7187508 6.37200077,11.9350969 5.08200038,10.9194708 C6.17400115,11.5204338 7.632,11.3701923 8.58000077,10.5528846 C9.52800154,9.73557692 9.90600038,8.30528923 9.49200077,7.12139385 C8.89200077,5.41466462 6.85800038,4.53726 5.10000077,4.85576923 C3.61800038,5.12620308 2.22000077,6.22596154 1.93200077,7.71634615 C1.63800115,9.24278923 2.56800154,10.8173077 3.87600077,11.6406246 C5.17800038,12.4639431 6.78000077,12.66226 8.32200038,12.6262031 C12.4920008,12.5360585 16.56,10.7091354 17.8980004,6.51442308 C18.2100004,5.53485538 18.4440008,4.50721231 18.7560008,3.4375 C19.104,2.41586615 19.4040008,1.14783692 20.6820004,0.276443077 L21.0780012,-2.27373675e-13 L21.1320008,0.0360584615 Z M21.1320008,29.9879815 L20.7480008,29.7475969 L20.7060004,29.7175477 L21.5580012,29.7175477 L21.5160008,29.7475969 L21.1320008,29.9879815 Z M21.1320008,0.0360584615 L21.5160008,0.276443077 L21.5580012,0.306490769 L20.7060004,0.306490769 L20.7480008,0.276443077 L21.1320008,0.0360584615" id="Shape" fill="#B09168" fill-rule="nonzero" mask="url(#mask-2)"></path>
                </g>
                <path d="M142.488734,15.5028876 C142.488734,15.4971124 142.488734,15.4971124 142.488734,15.4913388 C142.301345,10.2311874 135.441746,10.5256638 133,12.5812223 C133.834736,10.5949523 136.628547,9.8039091 138.576265,10.0406444 C141.040723,10.3408945 144.055994,12.7255729 143.99921,15.5028876 C144.055994,18.2744271 141.040723,20.6591055 138.576265,20.9593556 C136.628547,21.1960909 133.834736,20.4050477 133,18.4187777 C135.441746,20.4801099 142.301345,20.7688126 142.488734,15.5086612 C142.488734,15.5086612 142.488734,15.5028876 142.488734,15.5028876" id="Path" fill="#B09168" fill-rule="nonzero"></path>
                <path d="M80.5168153,15.5028876 C80.5168153,15.5028876 80.5168153,15.5086612 80.5168153,15.5086612 C80.698529,20.7688126 87.5582224,20.4801099 90,18.4187777 C89.1652522,20.4050477 86.3770832,21.1960909 84.4293387,20.9593556 C81.9648469,20.6591055 78.9495343,18.2744271 79.0006409,15.5028876 C78.9495343,12.7255729 81.9648469,10.3408945 84.4293387,10.0406444 C86.3770832,9.8039091 89.1652522,10.5949523 90,12.5812223 C87.5582224,10.5256638 80.698529,10.2311874 80.5168153,15.4913388 C80.5168153,15.4971124 80.5168153,15.4971124 80.5168153,15.5028876" id="Path" fill="#B09168" fill-rule="nonzero"></path>
                <path d="M112,15.1621 L111.769232,15.2601885 C111.08907,15.5483237 109.200405,18.3928892 108.720648,19.2756853 C108.587044,19.5331668 108.19838,20.1523498 107.706478,20.9431892 C107.09919,21.9363341 106.321862,23.1930922 105.65992,24.3272412 C108.884616,24.0574964 111.070851,21.3723255 111.277328,20.9554495 L112,19.4657306 L112.722672,20.9554495 C112.929149,21.3723255 115.109311,24.0574964 118.34008,24.3272412 C117.678138,23.1930922 116.90081,21.9363341 116.28745,20.9431892 C115.795546,20.1523498 115.412956,19.5331668 115.273279,19.2756853 C114.799595,18.3928892 112.91093,15.5483237 112.230768,15.2601885 L112,15.1621 Z M112,13.8379057 L112.230768,13.7398173 C112.91093,13.451682 114.799595,10.6009864 115.273279,9.71819028 C115.412956,9.46070728 115.795546,8.84152424 116.28745,8.0506864 C116.90081,7.06367163 117.678138,5.80691201 118.34008,4.66663441 C115.109311,4.94250782 112.929149,7.62767872 112.722672,8.04455626 L112,9.52814349 L111.277328,8.04455626 C111.070851,7.62767872 108.884616,4.94250782 105.65992,4.66663441 C106.321862,5.80691201 107.09919,7.06367163 107.706478,8.0506864 C108.19838,8.84152424 108.587044,9.46070728 108.720648,9.71819028 C109.200405,10.6009864 111.08907,13.451682 111.769232,13.7398173 L112,13.8379057 Z M112,6.30348447 C113.317813,4.80763697 116.172065,2.60677667 119.815789,3.06043503 L121,3.20143759 L120.423077,4.27428055 C119.67004,5.67204116 118.510121,7.55411394 117.653846,8.92735243 C117.186234,9.68140632 116.827935,10.2699371 116.694331,10.5151583 C116.676114,10.5458121 115.200405,13.1206327 113.846154,14.4938712 C115.200405,15.8732414 116.676114,18.4541937 116.694331,18.4848459 C116.827935,18.7300671 117.186234,19.3185979 117.653846,20.0665232 C118.510121,21.4397617 119.67004,23.3218329 120.423077,24.7257252 L121,25.7924364 L119.815789,25.9395691 C116.172065,26.3932291 113.317813,24.1923688 112,22.6903896 C110.682187,24.1923688 107.827935,26.3932291 104.184211,25.9395691 L103,25.7924364 L103.570851,24.7257252 C104.323887,23.3218329 105.489879,21.4397617 106.340081,20.0665232 C106.807692,19.3185979 107.172065,18.7300671 107.305669,18.4848459 C107.323886,18.4541937 108.799595,15.8732414 110.147774,14.5 C108.799595,13.1206327 107.323886,10.5458121 107.305669,10.5151583 C107.172065,10.2699371 106.807692,9.68140632 106.340081,8.92735243 C105.489879,7.55411394 104.323887,5.67204116 103.570851,4.27428055 L103,3.20143759 L104.184211,3.06043503 C107.827935,2.60677667 110.682187,4.80763697 112,6.30348447" id="Shape" fill="#B09168" fill-rule="nonzero"></path>
                <path d="M127,9 C127,9.55357105 126.549549,10 126.003004,10 C125.450449,10 125,9.55357105 125,9 C125,8.44642743 125.450449,8 126.003004,8 C126.549549,8 127,8.44642743 127,9" id="Path" fill="#B09168" fill-rule="nonzero"></path>
                <path d="M96,20.9970328 C96,20.4510371 96.4444453,20 96.9969964,20 C97.5495506,20 98,20.4510371 98,20.9970328 C98,21.5489613 97.5495506,22 96.9969964,22 C96.4444453,22 96,21.5489613 96,20.9970328" id="Path" fill="#B09168" fill-rule="nonzero"></path>
                <path d="M127,20.9970328 C127,20.4510371 126.549549,20 126.003004,20 C125.450449,20 125,20.4510371 125,20.9970328 C125,21.5489613 125.450449,22 126.003004,22 C126.549549,22 127,21.5489613 127,20.9970328" id="Path" fill="#B09168" fill-rule="nonzero"></path>
                <path d="M96,9 C96,9.55357105 96.4444453,10 96.9969964,10 C97.5495506,10 98,9.55357105 98,9 C98,8.44642743 97.5495506,8 96.9969964,8 C96.4444453,8 96,8.44642743 96,9" id="Path" fill="#B09168" fill-rule="nonzero"></path>
                <path d="M135,15.5034332 C135.075157,14.659039 135.720251,14 136.496869,14 C137.279749,14 137.924843,14.659039 138,15.5034332 C137.924843,16.340961 137.279749,17 136.496869,17 C135.720251,17 135.075157,16.340961 135,15.5034332" id="Path" fill="#B09168" fill-rule="nonzero"></path>
                <path d="M88,15.5034332 C87.9246878,16.340961 87.2845194,17 86.5,17 C85.7154822,17 85.0753138,16.340961 85,15.5034332 C85.0753138,14.659039 85.7154822,14 86.5,14 C87.2845194,14 87.9246878,14.659039 88,15.5034332" id="Path" fill="#B09168" fill-rule="nonzero"></path>
                <polyline id="Path" fill="#B09168" fill-rule="nonzero" points="145 15.875 213 15.328124 213 14.671874 145 14.125 145 15.875"></polyline>
                <polyline id="Path" fill="#B09168" fill-rule="nonzero" points="78 14.125 10 14.671874 10 15.328124 78 15.875 78 14.125"></polyline>
                <g id="Clipped" transform="translate(214.000000, 12.000000)">
                    <mask id="mask-4" fill="white">
                        <use xlink:href="#path-3"></use>
                    </mask>
                    <g id="Path"></g>
                    <path d="M1.0625811,2.71779216 C1.0625811,2.71779216 1.09741907,1.45398753 0.0348379693,0.1042941 C2.59548446,0.527606646 4.16903186,3.07975422 8.93032406,2.85276072 C8.97677568,2.85276072 8.97677568,2.94478566 9.00580757,2.99386542 C8.97677568,3.03680904 8.97677568,3.12883398 8.93032406,3.12883398 C4.16903186,2.90797506 2.59548446,5.45398805 0.0348379693,5.8773006 C1.09741907,4.52760717 1.0625811,3.26993869 1.0625811,3.26993869 L1.0625811,2.71779216" id="Path" fill="#B09168" fill-rule="nonzero" mask="url(#mask-4)"></path>
                </g>
                <path d="M7.96310618,15.2901171 C7.96310618,15.2901171 7.93398034,16.5972369 9,18 C6.42524229,17.5600429 4.8524277,14.9139212 0.0757277731,15.1434642 C0.023300968,15.1434642 0.023300968,15.0478209 0,15.0031887 C0.023300968,14.9521791 0.023300968,14.8565358 0.0757277731,14.8565358 C4.8524277,15.0924546 6.42524229,12.4399571 9,12 C7.93398034,13.4027631 7.96310618,14.7162603 7.96310618,14.7162603 L7.96310618,15.2901171" id="Path" fill="#B09168" fill-rule="nonzero"></path>
                <path d="M212,15 C212.091837,14.4285714 212.505102,14 213,14 C213.494899,14 213.908164,14.4285714 214,15 C213.908164,15.5663256 213.494899,16 213,16 C212.505102,16 212.091837,15.5663256 212,15" id="Path" fill="#B09168" fill-rule="nonzero"></path>
                <path d="M11,15 C10.9079277,15.5663256 10.4987207,16 10.0025574,16 C9.50127804,16 9.09207094,15.5663256 9,15 C9.09207094,14.4285714 9.50127804,14 10.0025574,14 C10.4987207,14 10.9079277,14.4285714 11,15" id="Path" fill="#B09168" fill-rule="nonzero"></path>
            </g>
        </g>
    </g>
</svg>