<?xml version="1.0" encoding="UTF-8"?>
<svg width="48px" height="48px" viewBox="0 0 48 48" version="1.1" xmlns="http://www.w3.org/2000/svg" xmlns:xlink="http://www.w3.org/1999/xlink">
    <title>Gluten free</title>
    <g id="Page-1" stroke="none" stroke-width="1" fill="none" fill-rule="evenodd">
        <g id="Gluten-free">
            <circle id="Oval-Copy-2" fill="#FFFFFF" cx="24" cy="24" r="24"></circle>
            <g id="Group-15" transform="translate(26.020500, 23.581905) rotate(-8.000000) translate(-26.020500, -23.581905) translate(12.747810, 1.818194)">
                <g id="Group-16" transform="translate(0.000000, 0.000000)">
                    <path d="M9.76705304,25.3723889 C9.58509946,28.4311117 9.19345135,30.8418795 8.59744476,32.5986337 L8.53000809,32.7925509 L8.37641381,33.206432 L8.19786743,33.6550096 L7.99437995,34.1382447 L7.76596236,34.6560979 L7.51262564,35.2085304 L7.2343808,35.7955029 L6.93123882,36.4169764 L6.6032107,37.0729117 L6.06453105,38.1213451 L5.46991941,39.2470977 L5.04245665,40.0404893 L4.35470747,41.2948138 C4.2672618,41.4527806 4.27177442,41.645622 4.3665134,41.7993256 C4.6965258,42.3347343 4.99263505,42.6741239 5.30678057,42.8277324 C5.63778093,42.9895825 6.06894691,42.9895825 6.62182201,42.8666319 C6.76990434,42.8337007 6.89502819,42.7353215 6.96196874,42.5991899 L7.4273606,41.6409884 L7.8639089,40.7178727 L8.27161567,39.8297981 C8.33716345,39.6847033 8.40150958,39.5410666 8.46465411,39.3988872 L8.82910237,38.5632902 L9.16471414,37.7626223 C9.2182465,37.6320859 9.27057743,37.503003 9.32170697,37.3753727 L9.6140678,36.6270144 L9.87759719,35.9134732 L10.1122972,35.2347042 C10.3692974,34.4630736 10.5674418,33.7623449 10.7067446,33.1321981 C11.2083184,30.8632916 11.2245863,28.2604405 10.7600288,25.3239506 C10.6665556,24.733102 9.80257504,24.7752478 9.76705304,25.3723889 Z M9.98655994,31.3503221 L9.94791098,31.6778897 C9.89146974,32.1026915 9.81892913,32.5155094 9.73031868,32.9163453 L9.66954212,33.1795455 C9.58373579,33.5364235 9.47884597,33.9170745 9.35487538,34.3214385 L9.15460923,34.945762 C9.08308387,35.1597932 9.00678866,35.3797451 8.92572392,35.6056105 L8.66822148,36.300939 C8.48701459,36.7763082 8.28673095,37.2753009 8.06737326,37.7978574 L7.72403153,38.5993576 C7.66442377,38.735884 7.60362396,38.8738812 7.54163214,39.0133484 L7.15537758,39.8677833 L6.740517,40.7574519 C6.66898984,40.9086637 6.59627086,41.0613416 6.52236008,41.2154849 L6.17355994,41.9333221 C5.94892425,41.9662116 5.80631469,41.9588448 5.74605131,41.9293777 L5.70519148,41.903411 C5.6449702,41.8579585 5.5623239,41.7692922 5.46374502,41.6386918 L5.37455994,41.5163221 L5.92585267,40.5092491 L6.3587745,39.7056071 L6.76671252,38.9362751 L7.14967772,38.2012139 L7.50768108,37.5003844 L7.84073361,36.8337476 L8.1488463,36.2012642 L8.43203013,35.6028953 L8.69029611,35.0386016 L8.92365521,34.5083441 L9.13211844,34.0120837 L9.31569679,33.5497812 C9.40126658,33.327113 9.47750866,33.1171643 9.54442921,32.9199131 C9.69239774,32.4837697 9.82798195,32.0121706 9.95125134,31.5050369 L9.98655994,31.3503221 Z" id="Path-7" fill="#222933" fill-rule="nonzero" transform="translate(7.694155, 33.928254) scale(-1, 1) rotate(-15.000000) translate(-7.694155, -33.928254) "></path>
                    <g id="Group-14" transform="translate(13.272690, 15.905247) rotate(32.000000) translate(-13.272690, -15.905247) translate(6.822943, 1.180373)" fill="#FFFFFF" stroke="#202934">
                        <path d="M6.94992273,0.653330172 C8.2670973,1.8109406 8.94974747,3.08665629 8.94974747,4.5 C8.94974747,5.91343659 8.26700758,7.18922706 6.94957221,8.34666983 C5.63239764,7.1890594 4.94974747,5.91334371 4.94974747,4.5 C4.94974747,3.08656341 5.63248736,1.81077294 6.94992273,0.653330172 Z" id="Oval" transform="translate(6.949747, 4.500000) scale(-1, 1) translate(-6.949747, -4.500000) "></path>
                        <path d="M4.94992273,3.65333017 C6.2670973,4.8109406 6.94974747,6.08665629 6.94974747,7.5 C6.94974747,8.91343659 6.26700758,10.1892271 4.94957221,11.3466698 C3.63239764,10.1890594 2.94974747,8.91334371 2.94974747,7.5 C2.94974747,6.08656341 3.63248736,4.81077294 4.94992273,3.65333017 Z" id="Oval" transform="translate(4.949747, 7.500000) scale(-1, 1) rotate(-315.000000) translate(-4.949747, -7.500000) "></path>
                        <path d="M7.94992273,5.65333017 C9.2670973,6.8109406 9.94974747,8.08665629 9.94974747,9.5 C9.94974747,10.9134366 9.26700758,12.1892271 7.94957221,13.3466698 C6.63239764,12.1890594 5.94974747,10.9133437 5.94974747,9.5 C5.94974747,8.08656341 6.63248736,6.81077294 7.94992273,5.65333017 Z" id="Oval" transform="translate(7.949747, 9.500000) rotate(-315.000000) translate(-7.949747, -9.500000) "></path>
                        <path d="M4.94992273,6.65333017 C6.2670973,7.8109406 6.94974747,9.08665629 6.94974747,10.5 C6.94974747,11.9134366 6.26700758,13.1892271 4.94957221,14.3466698 C3.63239764,13.1890594 2.94974747,11.9133437 2.94974747,10.5 C2.94974747,9.08656341 3.63248736,7.81077294 4.94992273,6.65333017 Z" id="Oval" transform="translate(4.949747, 10.500000) scale(-1, 1) rotate(-315.000000) translate(-4.949747, -10.500000) "></path>
                        <path d="M7.94992273,8.65333017 C9.2670973,9.8109406 9.94974747,11.0866563 9.94974747,12.5 C9.94974747,13.9134366 9.26700758,15.1892271 7.94957221,16.3466698 C6.63239764,15.1890594 5.94974747,13.9133437 5.94974747,12.5 C5.94974747,11.0865634 6.63248736,9.81077294 7.94992273,8.65333017 Z" id="Oval" transform="translate(7.949747, 12.500000) rotate(-315.000000) translate(-7.949747, -12.500000) "></path>
                        <path d="M4.94992273,9.65333017 C6.2670973,10.8109406 6.94974747,12.0866563 6.94974747,13.5 C6.94974747,14.9134366 6.26700758,16.1892271 4.94957221,17.3466698 C3.63239764,16.1890594 2.94974747,14.9133437 2.94974747,13.5 C2.94974747,12.0865634 3.63248736,10.8107729 4.94992273,9.65333017 Z" id="Oval" transform="translate(4.949747, 13.500000) scale(-1, 1) rotate(-315.000000) translate(-4.949747, -13.500000) "></path>
                        <path d="M7.94992273,11.6533302 C9.2670973,12.8109406 9.94974747,14.0866563 9.94974747,15.5 C9.94974747,16.9134366 9.26700758,18.1892271 7.94957221,19.3466698 C6.63239764,18.1890594 5.94974747,16.9133437 5.94974747,15.5 C5.94974747,14.0865634 6.63248736,12.8107729 7.94992273,11.6533302 Z" id="Oval" transform="translate(7.949747, 15.500000) rotate(-315.000000) translate(-7.949747, -15.500000) "></path>
                        <path d="M4.94992273,12.6533302 C6.2670973,13.8109406 6.94974747,15.0866563 6.94974747,16.5 C6.94974747,17.9134366 6.26700758,19.1892271 4.94957221,20.3466698 C3.63239764,19.1890594 2.94974747,17.9133437 2.94974747,16.5 C2.94974747,15.0865634 3.63248736,13.8107729 4.94992273,12.6533302 Z" id="Oval" transform="translate(4.949747, 16.500000) scale(-1, 1) rotate(-315.000000) translate(-4.949747, -16.500000) "></path>
                        <path d="M7.94992273,14.6533302 C9.2670973,15.8109406 9.94974747,17.0866563 9.94974747,18.5 C9.94974747,19.9134366 9.26700758,21.1892271 7.94957221,22.3466698 C6.63239764,21.1890594 5.94974747,19.9133437 5.94974747,18.5 C5.94974747,17.0865634 6.63248736,15.8107729 7.94992273,14.6533302 Z" id="Oval" transform="translate(7.949747, 18.500000) rotate(-315.000000) translate(-7.949747, -18.500000) "></path>
                        <path d="M4.94992273,15.6533302 C6.2670973,16.8109406 6.94974747,18.0866563 6.94974747,19.5 C6.94974747,20.9134366 6.26700758,22.1892271 4.94957221,23.3466698 C3.63239764,22.1890594 2.94974747,20.9133437 2.94974747,19.5 C2.94974747,18.0865634 3.63248736,16.8107729 4.94992273,15.6533302 Z" id="Oval" transform="translate(4.949747, 19.500000) scale(-1, 1) rotate(-315.000000) translate(-4.949747, -19.500000) "></path>
                        <path d="M7.94992273,17.6533302 C9.2670973,18.8109406 9.94974747,20.0866563 9.94974747,21.5 C9.94974747,22.9134366 9.26700758,24.1892271 7.94957221,25.3466698 C6.63239764,24.1890594 5.94974747,22.9133437 5.94974747,21.5 C5.94974747,20.0865634 6.63248736,18.8107729 7.94992273,17.6533302 Z" id="Oval" transform="translate(7.949747, 21.500000) rotate(-315.000000) translate(-7.949747, -21.500000) "></path>
                        <path d="M4.94992273,18.6533302 C6.2670973,19.8109406 6.94974747,21.0866563 6.94974747,22.5 C6.94974747,23.9134366 6.26700758,25.1892271 4.94957221,26.3466698 C3.63239764,25.1890594 2.94974747,23.9133437 2.94974747,22.5 C2.94974747,21.0865634 3.63248736,19.8107729 4.94992273,18.6533302 Z" id="Oval" transform="translate(4.949747, 22.500000) scale(-1, 1) rotate(-315.000000) translate(-4.949747, -22.500000) "></path>
                        <path d="M7.94992273,20.6533302 C9.2670973,21.8109406 9.94974747,23.0866563 9.94974747,24.5 C9.94974747,25.9134366 9.26700758,27.1892271 7.94957221,28.3466698 C6.63239764,27.1890594 5.94974747,25.9133437 5.94974747,24.5 C5.94974747,23.0865634 6.63248736,21.8107729 7.94992273,20.6533302 Z" id="Oval" transform="translate(7.949747, 24.500000) rotate(-315.000000) translate(-7.949747, -24.500000) "></path>
                        <path d="M4.94992273,15.6533302 C6.2670973,16.8109406 6.94974747,18.0866563 6.94974747,19.5 C6.94974747,20.9134366 6.26700758,22.1892271 4.94957221,23.3466698 C3.63239764,22.1890594 2.94974747,20.9133437 2.94974747,19.5 C2.94974747,18.0865634 3.63248736,16.8107729 4.94992273,15.6533302 Z" id="Oval" transform="translate(4.949747, 19.500000) scale(-1, 1) rotate(-315.000000) translate(-4.949747, -19.500000) "></path>
                        <path d="M7.94992273,17.6533302 C9.2670973,18.8109406 9.94974747,20.0866563 9.94974747,21.5 C9.94974747,22.9134366 9.26700758,24.1892271 7.94957221,25.3466698 C6.63239764,24.1890594 5.94974747,22.9133437 5.94974747,21.5 C5.94974747,20.0865634 6.63248736,18.8107729 7.94992273,17.6533302 Z" id="Oval" transform="translate(7.949747, 21.500000) rotate(-315.000000) translate(-7.949747, -21.500000) "></path>
                        <path d="M4.94992273,18.6533302 C6.2670973,19.8109406 6.94974747,21.0866563 6.94974747,22.5 C6.94974747,23.9134366 6.26700758,25.1892271 4.94957221,26.3466698 C3.63239764,25.1890594 2.94974747,23.9133437 2.94974747,22.5 C2.94974747,21.0865634 3.63248736,19.8107729 4.94992273,18.6533302 Z" id="Oval" transform="translate(4.949747, 22.500000) scale(-1, 1) rotate(-315.000000) translate(-4.949747, -22.500000) "></path>
                        <path d="M7.94992273,20.6533302 C9.2670973,21.8109406 9.94974747,23.0866563 9.94974747,24.5 C9.94974747,25.9134366 9.26700758,27.1892271 7.94957221,28.3466698 C6.63239764,27.1890594 5.94974747,25.9133437 5.94974747,24.5 C5.94974747,23.0865634 6.63248736,21.8107729 7.94992273,20.6533302 Z" id="Oval" transform="translate(7.949747, 24.500000) rotate(-315.000000) translate(-7.949747, -24.500000) "></path>
                    </g>
                </g>
            </g>
        </g>
    </g>
</svg>