<?xml version="1.0" encoding="UTF-8"?>
<svg width="48px" height="48px" viewBox="0 0 48 48" version="1.1" xmlns="http://www.w3.org/2000/svg" xmlns:xlink="http://www.w3.org/1999/xlink">
    <title>Irish ingredients</title>
    <g id="Page-1" stroke="none" stroke-width="1" fill="none" fill-rule="evenodd">
        <g id="Irish-ingredients">
            <circle id="Oval-Copy" fill="#FFFFFF" cx="24" cy="24" r="24"></circle>
            <g id="Group-12" transform="translate(8.000000, 8.000000)" fill="#222933" fill-rule="nonzero">
                <path d="M18.9412114,0.0122459081 C22.4826877,-0.215772499 24.2548839,2.77426165 23.0783282,6.15938261 C22.7394288,7.1344452 22.0605708,8.19686299 21.0777207,9.36042027 C20.2723297,10.3138907 19.2825286,11.3137069 18.0836409,12.4128199 L18.0836409,12.4128199 L17.4816631,12.9584046 L16.9080755,13.4658791 L15.9346103,14.305 L15.9346103,14.374 L15.8946103,14.339 L15.8553887,14.374 L15.8546103,14.305 L14.8819235,13.4658791 L14.3083359,12.9584046 L13.7063582,12.4128199 C12.5074704,11.3137069 11.5176693,10.3138907 10.7122783,9.36042027 C9.72942822,8.19686299 9.05057028,7.1344452 8.71167086,6.15938261 C7.5351151,2.77426165 9.3073113,-0.215772499 12.8487876,0.0122459081 C13.340093,0.0438786664 13.8383108,0.18651398 14.4783782,0.45760833 L15.0172152,0.70153261 L15.8946103,1.116 L16.7727839,0.70153261 L17.3116208,0.45760833 C17.9516882,0.18651398 18.449906,0.0438786664 18.9412114,0.0122459081 Z M22.1337554,5.83108045 C23.0932992,3.07033425 21.7668653,0.832386398 19.0054635,1.01017961 C18.5976934,1.03643394 18.1361399,1.18117577 17.4734169,1.47797786 L17.4734169,1.47797786 L15.9346103,2.202 L15.9346103,2.24 L15.8946103,2.221 L15.8553887,2.24 L15.8546103,2.202 L14.3165822,1.47797786 C13.6538591,1.18117577 13.1923057,1.03643394 12.7845355,1.01017961 C10.0231337,0.832386398 8.69669981,3.07033425 9.65624362,5.83108045 C9.94803093,6.67059471 10.5655819,7.63706659 11.4762142,8.71512807 C12.1642635,9.52968238 13.0005774,10.3877409 13.9997675,11.3218058 L14.5333698,11.8139938 L15.2780406,12.4825033 L15.7712001,12.9146796 L15.8946103,13.021 L16.0187989,12.9146796 L16.5119584,12.4825033 L17.2566293,11.8139938 L17.7902316,11.3218058 C18.7894216,10.3877409 19.6257355,9.52968238 20.3137848,8.71512807 C21.2244172,7.63706659 21.8419681,6.67059471 22.1337554,5.83108045 Z" id="Combined-Shape"></path>
                <path d="M11.9412111,8.56732166 C15.4826873,8.33930326 17.2548835,11.3293374 16.0783277,14.7144584 C15.7394283,15.689521 15.0605704,16.7519387 14.0777203,17.915496 C13.2723293,18.8689665 12.2825283,19.8687827 11.0836406,20.9678957 L11.0836406,20.9678957 L10.4816628,21.5134803 L9.90807527,22.0209549 L8.93461029,22.8600758 L8.93461029,22.9290758 L8.89461029,22.8940758 L8.85538829,22.9290758 L8.85461029,22.8600758 L7.88192331,22.0209549 L7.30833577,21.5134803 L6.70635801,20.9678957 C5.50747032,19.8687827 4.51766925,18.8689665 3.71227827,17.915496 C2.72942818,16.7519387 2.05057026,15.689521 1.71167085,14.7144584 C0.535115119,11.3293374 2.30731127,8.33930326 5.84878749,8.56732166 C6.34009283,8.59895442 6.83831065,8.74158974 7.47837802,9.01268409 L8.01721498,9.25660837 L8.89461029,9.67107576 L9.7727836,9.25660837 L10.3116206,9.01268409 C10.9516879,8.74158974 11.4499057,8.59895442 11.9412111,8.56732166 Z M15.133755,14.3861562 C16.0932988,11.62541 14.7668649,9.38746215 12.0054632,9.56525536 C11.5976931,9.5915097 11.1361396,9.73625152 10.4734166,10.0330536 L10.4734166,10.0330536 L8.93461029,10.7570758 L8.93461029,10.7950758 L8.89461029,10.7760758 L8.85538829,10.7950758 L8.85461029,10.7570758 L7.31658199,10.0330536 C6.65385897,9.73625152 6.19230551,9.5915097 5.7845354,9.56525536 C3.02313367,9.38746215 1.6966998,11.62541 2.65624358,14.3861562 C2.94803089,15.2256705 3.56558181,16.1921423 4.4762141,17.2702038 C5.1642634,18.0847581 6.00057728,18.9428167 6.9997673,19.8768816 L7.53336959,20.3690696 L8.27804038,21.037579 L8.77119993,21.4697554 L8.89461029,21.5760758 L9.01879865,21.4697554 L9.5119582,21.037579 L10.256629,20.3690696 L10.7902313,19.8768816 C11.7894213,18.9428167 12.6257352,18.0847581 13.3137845,17.2702038 C14.2244168,16.1921423 14.8419677,15.2256705 15.133755,14.3861562 Z" id="Combined-Shape" transform="translate(8.894999, 15.742076) rotate(-105.000000) translate(-8.894999, -15.742076) "></path>
                <path d="M25.9412111,8.56732166 C29.4826873,8.33930326 31.2548835,11.3293374 30.0783277,14.7144584 C29.7394283,15.689521 29.0605704,16.7519387 28.0777203,17.915496 C27.2723293,18.8689665 26.2825283,19.8687827 25.0836406,20.9678957 L25.0836406,20.9678957 L24.4816628,21.5134803 L23.9080753,22.0209549 L22.9346103,22.8600758 L22.9346103,22.9290758 L22.8946103,22.8940758 L22.8553883,22.9290758 L22.8546103,22.8600758 L21.8819233,22.0209549 L21.3083358,21.5134803 L20.706358,20.9678957 C19.5074703,19.8687827 18.5176693,18.8689665 17.7122783,17.915496 C16.7294282,16.7519387 16.0505703,15.689521 15.7116709,14.7144584 C14.5351151,11.3293374 16.3073113,8.33930326 19.8487875,8.56732166 C20.3400928,8.59895442 20.8383106,8.74158974 21.478378,9.01268409 L22.017215,9.25660837 L22.8946103,9.67107576 L23.7727836,9.25660837 L24.3116206,9.01268409 C24.9516879,8.74158974 25.4499057,8.59895442 25.9412111,8.56732166 Z M29.133755,14.3861562 C30.0932988,11.62541 28.7668649,9.38746215 26.0054632,9.56525536 C25.5976931,9.5915097 25.1361396,9.73625152 24.4734166,10.0330536 L24.4734166,10.0330536 L22.9346103,10.7570758 L22.9346103,10.7950758 L22.8946103,10.7760758 L22.8553883,10.7950758 L22.8546103,10.7570758 L21.316582,10.0330536 C20.653859,9.73625152 20.1923055,9.5915097 19.7845354,9.56525536 C17.0231337,9.38746215 15.6966998,11.62541 16.6562436,14.3861562 C16.9480309,15.2256705 17.5655818,16.1921423 18.4762141,17.2702038 C19.1642634,18.0847581 20.0005773,18.9428167 20.9997673,19.8768816 L21.5333696,20.3690696 L22.2780404,21.037579 L22.7711999,21.4697554 L22.8946103,21.5760758 L23.0187987,21.4697554 L23.5119582,21.037579 L24.256629,20.3690696 L24.7902313,19.8768816 C25.7894213,18.9428167 26.6257352,18.0847581 27.3137845,17.2702038 C28.2244168,16.1921423 28.8419677,15.2256705 29.133755,14.3861562 Z" id="Combined-Shape" transform="translate(22.894999, 15.742076) scale(-1, 1) rotate(-105.000000) translate(-22.894999, -15.742076) "></path>
                <path d="M15.3958818,14.538724 C15.2139283,17.5974467 14.8222802,20.0082145 14.2262736,21.7649688 L14.1588369,21.958886 L14.0052426,22.3727671 L13.8266962,22.8213447 L13.6232088,23.3045797 L13.3947912,23.822433 L13.1414544,24.3748655 L12.8632096,24.961838 L12.5600676,25.5833115 L12.2320395,26.2392468 L11.6933599,27.2876802 L11.0987482,28.4134327 L10.6712854,29.2068244 L9.98353627,30.4611489 C9.8960906,30.6191157 9.90060322,30.8119571 9.9953422,30.9656606 C10.3253546,31.5010694 10.6214638,31.840459 10.9356094,31.9940675 C11.2666097,32.1559176 11.6977757,32.1559176 12.2506508,32.0329669 C12.3987331,32.0000358 12.523857,31.9016566 12.5907975,31.765525 L13.0561894,30.8073235 L13.4927377,29.8842078 L13.9004445,28.9961332 C13.9659923,28.8510383 14.0303384,28.7074017 14.0934829,28.5652223 L14.4579312,27.7296253 L14.7935429,26.9289573 C14.8470753,26.7984209 14.8994062,26.6693381 14.9505358,26.5417078 L15.2428966,25.7933495 L15.506426,25.0798082 L15.741126,24.4010393 C15.9981262,23.6294087 16.1962706,22.92868 16.3355734,22.2985331 C16.8371472,20.0296267 16.8534151,17.4267756 16.3888576,14.4902857 C16.2953844,13.8994371 15.4314038,13.9415829 15.3958818,14.538724 Z M15.6153887,20.5166572 L15.5767398,20.8442248 C15.5202985,21.2690266 15.4477579,21.6818444 15.3591475,22.0826804 L15.2983709,22.3458806 C15.2125646,22.7027586 15.1076748,23.0834095 14.9837042,23.4877736 L14.783438,24.1120971 C14.7119127,24.3261282 14.6356175,24.5460802 14.5545527,24.7719455 L14.2970503,25.4672741 C14.1158434,25.9426432 13.9155598,26.441636 13.6962021,26.9641925 L13.3528603,27.7656927 C13.2932526,27.9022191 13.2324528,28.0402163 13.1704609,28.1796835 L12.7842064,29.0341184 L12.3693458,29.923787 C12.2978186,30.0749987 12.2250997,30.2276767 12.1511889,30.38182 L11.8023887,31.0996572 C11.5777531,31.1325467 11.4351435,31.1251799 11.3748801,31.0957128 L11.3340203,31.069746 C11.273799,31.0242936 11.1911527,30.9356273 11.0925738,30.8050269 L11.0033887,30.6826572 L11.5546815,29.6755841 L11.9876033,28.8719422 L12.3955413,28.1026102 L12.7785065,27.367549 L13.1365099,26.6667195 L13.4695624,26.0000826 L13.7776751,25.3675993 L14.0608589,24.7692303 L14.3191249,24.2049367 L14.552484,23.6746792 L14.7609472,23.1784187 L14.9445256,22.7161163 C15.0300954,22.493448 15.1063375,22.2834993 15.173258,22.0862482 C15.3212265,21.6501048 15.4568107,21.1785057 15.5800801,20.671372 L15.6153887,20.5166572 Z" id="Path-7"></path>
            </g>
        </g>
    </g>
</svg>